<svg t="1619506497326" class="icon" viewBox="0 0 1024 1024" version="1.1" xmlns="http://www.w3.org/2000/svg" p-id="3076" width="64" height="64"><path d="M116.91008 0h552.05888l262.77376 257.70496V995.4304c0 15.7696-13.19936 28.5696-29.46048 28.5696H116.91008c-16.26112 0-29.45536-12.8-29.45536-28.5696V28.5696C87.4496 12.8 100.64896 0 116.91008 0z" fill="#FF4867" p-id="3077"></path><path d="M668.96896 0v229.13536c0 15.79008 13.19936 28.5696 29.46048 28.5696h233.31328L668.96896 0z" fill="#FF97A9" p-id="3078"></path><path d="M721.3056 854.87104c-52.31616 0-99.24608-87.0912-123.91936-143.70304-41.5232-16.80896-87.31648-32.512-131.77856-42.66496-38.912 24.89856-105.12384 62.17216-155.9808 62.17216-31.54944 0-54.26688-15.39584-62.60736-42.1888-6.38976-22.05184-0.98816-37.2736 5.87776-45.5168 13.40928-17.7664 41.0368-26.79296 82.4064-26.79296 33.52064 0 76.01664 5.69856 123.4432 16.7936a785.0496 785.0496 0 0 0 89.26208-71.3728c-12.2624-56.45824-25.67168-147.968 8.3456-190.1568 16.83456-20.14208 42.496-26.79808 73.5488-17.7664 34.01728 9.5232 46.93504 29.66016 50.85696 45.5168 14.39232 55.04-50.85696 129.25952-94.82752 172.88192 9.81504 37.7344 22.7328 77.55264 38.43072 114.0224 63.09888 27.2896 138.1376 68.0448 146.65216 112.47104 3.4304 15.36-1.4848 29.6448-14.39744 42.17344-11.12064 8.87296-22.87616 14.11072-35.31776 14.11072v0.02048z m-47.03744-96.02048c11.50464 24.85248 22.48704 36.57728 28.27776 36.57728 0.88064 0 2.14528-0.37888 3.92192-1.8944 2.1504-2.28864 2.1504-3.80928 1.792-5.20704-1.19296-6.51776-10.9056-17.23904-33.9968-29.47584zM342.07744 658.2784c-18.4064 0-23.4752 4.31616-25.00608 6.33344-0.44032 0.64512-1.76128 2.59072-0.44032 7.60832 1.09056 4.32128 4.1728 8.92928 13.70624 8.92928 11.95008 0 29.24544-6.5536 49.34144-18.26304-14.37696-3.08736-27.04384-4.608-37.60128-4.608z m180.18816-22.18496c10.99776 2.9696 22.4 6.8096 32.99328 10.752a280.9344 280.9344 0 0 1-9.58976-29.696 722.85696 722.85696 0 0 1-23.3984 18.944z m77.7216-214.3744a11.71456 11.71456 0 0 0-9.1136 4.00896c-7.28064 8.89344-8.0896 31.29856-2.4576 59.99104 21.3248-22.20544 32.9216-42.5984 30.03392-53.504-0.40448-1.60768-1.6384-6.48704-11.5968-9.30304a24.01792 24.01792 0 0 0-6.8608-1.19296z" fill="#FFFFFF" p-id="3079"></path></svg>
