<svg t="1619506466646" class="icon" viewBox="0 0 1140 1024" version="1.1" xmlns="http://www.w3.org/2000/svg" p-id="2926" width="64" height="64"><path d="M1079.048591 1022.302497H56.746094c-31.187329 0-56.746094-21.778899-56.746094-48.224215V681.537289h1135.574765v292.389798c0 26.452188-25.565638 48.231087-56.746094 48.231087l0.21992 0.144323z" fill="#5ACC9B" p-id="2927"></path><path d="M56.746094 0H1079.048591c31.187329 0 56.746094 21.785772 56.746094 48.224215v292.540993H0.219919V48.382282C0.219919 21.923221 25.785557 0.151195 56.972886 0.151195L56.746094 0z" fill="#6CCBFF" p-id="2928"></path><path d="M0.219919 340.840805h1135.423571v340.620886H0.219919z" fill="#FFD766" p-id="2929"></path><path d="M378.694443 0.219919h378.474523v1021.862658H378.694443z" fill="#FF5562" p-id="2930"></path><path d="M487.444617 56.972886h75.714148v56.814819H487.444617V56.966013zM563.158765 0.213047H638.86604V56.972886H563.158765V0.219919z m0 113.567785H638.86604v56.5949H563.158765v-56.5949z m-75.714148 56.5949h75.714148v56.746094H487.444617v-56.746094z m75.714148 56.746094H638.86604v56.821691H563.158765v-56.821691z m-75.714148 56.821691h75.714148v56.814819H487.444617v-56.814819z m75.714148 56.746094H638.86604v56.746094H563.158765v-56.746094zM487.444617 397.435705h75.714148v56.814818H487.444617v-56.814818z m75.714148 56.814818H638.86604v56.897289H563.158765v-56.897289z m-75.714148 56.897289h75.714148v56.746094H487.444617v-56.746094z m75.714148 56.746094H638.86604V624.708725H563.158765v-56.814819zM487.444617 624.708725h75.714148v56.821691H487.444617V624.708725z m75.714148 56.746094H638.86604v56.746094H563.158765v-56.746094z m-75.714148 56.746094h75.714148v56.821691H487.444617v-56.821691z m75.714148 56.821691H638.86604v56.890416H563.158765v-56.890416z m-75.714148 56.890416h75.714148v56.746094H487.444617v-56.746094z m0 113.567785h75.714148v56.814819H487.444617v-56.814819z m75.714148-56.821691H638.86604v56.821691H563.158765v-56.821691z" fill="#FFFFFF" p-id="2931"></path></svg>
