<svg t="1619506202991" class="icon" viewBox="0 0 1024 1024" version="1.1" xmlns="http://www.w3.org/2000/svg" p-id="1446" width="64" height="64"><path d="M391.432258 376.567742h-67.716129v142.03871h67.716129c24.774194 0 42.941935-4.954839 54.503226-16.516129 11.56129-11.56129 16.516129-29.729032 16.516129-54.503226s-6.606452-42.941935-18.167742-52.851613-31.380645-18.167742-52.851613-18.167742z" fill="#169DFB" p-id="1447"></path><path d="M758.090323 36.335484L736.619355 14.864516h-545.032258c-46.245161 0-82.580645 36.335484-82.580645 82.580645v825.806452c0 46.245161 36.335484 82.580645 82.580645 82.580645h644.129032c46.245161 0 82.580645-36.335484 82.580645-82.580645V201.496774l-160.206451-165.16129zM391.432258 551.63871h-67.716129v113.96129c0 6.606452-1.651613 11.56129-4.954839 14.864516s-8.258065 4.954839-14.864516 4.954839-13.212903-1.651613-14.864516-4.954839c-3.303226-3.303226-4.954839-8.258065-4.954839-14.864516V365.006452c0-9.909677 1.651613-16.516129 4.954839-19.819355 3.303226-3.303226 11.56129-4.954839 23.122581-4.954839h77.625806c37.987097 0 64.412903 8.258065 82.580645 24.774194s26.425806 42.941935 26.425807 79.277419c1.651613 72.670968-34.683871 107.354839-107.354839 107.354839z m343.535484 74.32258c-4.954839 13.212903-13.212903 23.122581-21.470968 33.032258s-21.470968 16.516129-34.683871 21.470968c-13.212903 4.954839-28.077419 8.258065-44.593548 8.258065-13.212903 0-24.774194-1.651613-36.335484-4.954839-11.56129-3.303226-23.122581-6.606452-33.032258-11.56129-14.864516-6.606452-23.122581-14.864516-28.077419-23.122581-4.954839-8.258065-4.954839-14.864516 0-21.470968 3.303226-4.954839 8.258065-6.606452 13.212903-6.606451 4.954839 0 9.909677 1.651613 14.864516 6.606451 9.909677 6.606452 21.470968 11.56129 33.032258 16.516129 11.56129 4.954839 24.774194 6.606452 37.987097 6.606452 8.258065 0 16.516129-1.651613 24.774193-4.954839 8.258065-3.303226 14.864516-8.258065 21.470968-13.212903 6.606452-4.954839 11.56129-13.212903 14.864516-19.819355 3.303226-8.258065 4.954839-16.516129 4.954839-26.425806 0-9.909677-1.651613-18.167742-4.954839-24.774194-3.303226-8.258065-8.258065-14.864516-14.864516-19.819355l-19.819355-14.864516c-8.258065-3.303226-14.864516-8.258065-21.470968-9.909677-13.212903-4.954839-26.425806-11.56129-37.987096-16.516129-11.56129-4.954839-21.470968-11.56129-29.729033-19.819355-8.258065-6.606452-14.864516-16.516129-19.819354-26.425807-4.954839-9.909677-6.606452-23.122581-6.606452-36.335483 0-13.212903 3.303226-24.774194 8.258064-36.335484 4.954839-9.909677 11.56129-19.819355 21.470968-26.425807 8.258065-8.258065 18.167742-13.212903 29.729032-16.516129 11.56129-3.303226 23.122581-4.954839 36.335484-4.954839 13.212903 0 24.774194 1.651613 36.335484 4.954839 11.56129 3.303226 21.470968 8.258065 29.729032 13.212903 8.258065 4.954839 14.864516 11.56129 18.167742 16.516129 3.303226 6.606452 3.303226 13.212903 0 19.819355-3.303226 4.954839-6.606452 6.606452-13.212903 6.606452s-11.56129-1.651613-16.516129-4.954839c-6.606452-4.954839-14.864516-9.909677-24.774193-14.864516-9.909677-4.954839-19.819355-6.606452-31.380646-6.606452-16.516129 0-29.729032 4.954839-39.638709 14.864517-9.909677 9.909677-14.864516 21.470968-14.864516 36.335483 0 9.909677 1.651613 16.516129 6.606451 23.122581 4.954839 6.606452 9.909677 13.212903 16.516129 16.516129 6.606452 4.954839 14.864516 9.909677 24.774194 13.212903 8.258065 4.954839 18.167742 8.258065 28.077419 13.212904 13.212903 4.954839 23.122581 11.56129 33.032258 18.167741s18.167742 13.212903 24.774194 19.819355c6.606452 8.258065 11.56129 16.516129 16.516129 26.425807 3.303226 9.909677 4.954839 21.470968 4.954839 34.683871 1.651613 16.516129 0 29.729032-6.606452 41.290322z" fill="#169DFB" p-id="1448"></path><path d="M736.619355 14.864516h-3.303226v132.129032c0 16.516129 8.258065 52.851613 57.806452 52.851613h127.174193L736.619355 14.864516z" fill="#8BCEFD" p-id="1449"></path></svg>
