<svg t="1619506354975" class="icon" viewBox="0 0 1024 1024" version="1.1" xmlns="http://www.w3.org/2000/svg" p-id="2334" width="64" height="64"><path d="M137.90246 0.00041a48.573421 48.573421 0 0 0-35.589106 15.293433A53.964778 53.964778 0 0 0 87.0404 50.934149V968.345622a48.706541 48.706541 0 0 0 15.272954 35.640306 49.97118 49.97118 0 0 0 35.589106 15.293434h746.336982a48.639981 48.639981 0 0 0 35.589105-15.293434 50.37054 50.37054 0 0 0 15.272954-35.640306V288.717094L646.727857 0.00041H137.90246z" fill="#FF8976" p-id="2335"></path><path d="M935.101501 288.717094h-237.445025c-27.822069-0.6656-50.22718-23.075831-50.928619-50.93374V0.00041l288.373644 288.716684z" fill="#FFD0C8" p-id="2336"></path><path d="M415.257869 564.731064l-124.70267 49.26974 124.70267 49.27486v39.096305l-172.175291-68.756453v-39.096304l172.175291-68.756453v38.963185zM539.02358 451.686629h39.045104l-95.016922 254.801818h-38.978544l94.950362-254.801818z m67.860452 212.377515l124.702671-49.26974-124.702671-49.269741v-39.101424l172.175292 67.957733v39.895024l-172.175292 68.823012V664.064144z" fill="#FFFFFF" p-id="2337"></path></svg>
