<svg t="1619506516185" class="icon" viewBox="0 0 1024 1024" version="1.1" xmlns="http://www.w3.org/2000/svg" p-id="3224" width="64" height="64"><path d="M116.91008 0h552.05888l262.77376 257.70496V995.4304c0 15.7696-13.19936 28.5696-29.46048 28.5696H116.91008c-16.26112 0-29.45536-12.8-29.45536-28.5696V28.5696C87.4496 12.8 100.64896 0 116.91008 0z" fill="#FF7861" p-id="3225"></path><path d="M668.96896 0v229.13536c0 15.79008 13.19936 28.5696 29.46048 28.5696h233.31328L668.96896 0z" fill="#FFB0A4" p-id="3226"></path><path d="M695.59296 473.25696c9.18528 9.09824 14.0288 22.19008 14.0288 41.59488 0 19.42016-4.84352 32.512-14.0288 41.60512-9.79968 9.728-26.3936 16.9472-50.90816 20.6848h-363.9808c-22.784 0-41.25184 17.90976-41.25184 40.00768v179.42016c0 14.29504 7.8592 27.50464 20.62336 34.65216a42.35776 42.35776 0 0 0 41.24672 0c12.76416-7.14752 20.62848-20.35712 20.62336-34.65216v-139.43296h325.82144c1.93536 0 3.8912-0.12288 5.82144-0.39424 88.11008-12.20096 138.5216-62.22336 138.5216-141.89056 0-79.65184-50.41152-129.67424-138.5216-141.8752a42.04544 42.04544 0 0 0-5.82144-0.4096H280.69888c-22.784 0-41.24672 17.90976-41.24672 40.00256 0 22.0928 18.46784 40.00256 41.24672 40.00256h363.98592c24.51456 3.7376 41.10848 10.9568 50.90816 20.66944v0.01536z" fill="#FFFFFF" p-id="3227"></path></svg>
