<svg t="1619506160661" class="icon" viewBox="0 0 1024 1024" version="1.1" xmlns="http://www.w3.org/2000/svg" p-id="1299" width="64" height="64"><path d="M758.090323 36.335484L736.619355 14.864516h-545.032258c-46.245161 0-82.580645 36.335484-82.580645 82.580645v825.806452c0 46.245161 36.335484 82.580645 82.580645 82.580645h644.129032c46.245161 0 82.580645-36.335484 82.580645-82.580645V201.496774l-160.206451-165.16129zM531.819355 715.148387c-6.606452 6.606452-16.516129 11.56129-26.425807 11.56129-11.56129 0-19.819355-3.303226-28.077419-11.56129-6.606452-6.606452-11.56129-16.516129-11.56129-26.425806 0-11.56129 3.303226-19.819355 11.56129-26.425807 6.606452-6.606452 16.516129-11.56129 28.077419-11.56129s19.819355 3.303226 26.425807 11.56129c6.606452 6.606452 11.56129 16.516129 11.56129 26.425807 0 9.909677-4.954839 18.167742-11.56129 26.425806z m87.535484-272.516129c-4.954839 13.212903-16.516129 28.077419-33.032258 42.941936-11.56129 9.909677-19.819355 19.819355-26.425807 26.425806-6.606452 8.258065-11.56129 14.864516-14.864516 21.470968-3.303226 6.606452-4.954839 11.56129-6.606452 18.167742-1.651613 6.606452-1.651613 13.212903-1.651612 19.819355 0 11.56129-3.303226 19.819355-9.909678 24.774193-6.606452 4.954839-14.864516 8.258065-24.774193 8.258065s-18.167742-3.303226-24.774194-8.258065c-6.606452-4.954839-9.909677-13.212903-9.909677-24.774193 0-6.606452 1.651613-13.212903 3.303225-21.470968s6.606452-18.167742 9.909678-28.07742c4.954839-9.909677 9.909677-19.819355 16.516129-29.729032s14.864516-19.819355 23.122581-28.077419c6.606452-6.606452 13.212903-13.212903 16.516129-18.167742s8.258065-11.56129 11.56129-16.516129c3.303226-4.954839 4.954839-9.909677 4.954839-14.864516 1.651613-4.954839 1.651613-11.56129 1.651612-16.516129 0-14.864516-4.954839-26.425806-13.212903-31.380645-8.258065-4.954839-18.167742-8.258065-31.380645-8.258065-11.56129 0-23.122581 3.303226-31.380645 6.606452-9.909677 4.954839-14.864516 11.56129-14.864516 21.470967 0 9.909677-4.954839 16.516129-13.212903 21.470968-8.258065 4.954839-18.167742 6.606452-26.425807 6.606452-11.56129 0-19.819355-3.303226-24.774193-8.258065-4.954839-4.954839-6.606452-11.56129-6.606452-21.470968 0-13.212903 3.303226-24.774194 9.909677-36.335483 6.606452-11.56129 14.864516-19.819355 24.774194-28.07742s23.122581-14.864516 37.987097-18.167742c14.864516-4.954839 29.729032-6.606452 46.245161-8.258064 16.516129 0 31.380645 1.651613 44.593548 6.606451 13.212903 4.954839 26.425806 11.56129 36.335484 19.819355 9.909677 8.258065 18.167742 19.819355 23.122581 33.032258 4.954839 13.212903 8.258065 28.077419 8.258064 46.245162 3.303226 14.864516 1.651613 29.729032-4.954838 42.941935z" fill="#DCDCDC" p-id="1300"></path><path d="M736.619355 14.864516h-3.303226v132.129032c0 16.516129 8.258065 52.851613 57.806452 52.851613h127.174193L736.619355 14.864516z" fill="#EEEEEE" p-id="1301"></path></svg>
