<svg t="1619506370346" class="icon" viewBox="0 0 1024 1024" version="1.1" xmlns="http://www.w3.org/2000/svg" p-id="2482" width="64" height="64"><path d="M137.90246 0.00041a48.573421 48.573421 0 0 0-35.589106 15.293433A53.964778 53.964778 0 0 0 87.0404 50.934149V968.345622a48.706541 48.706541 0 0 0 15.272954 35.640306 49.97118 49.97118 0 0 0 35.589106 15.293434h746.336982a48.639981 48.639981 0 0 0 35.589105-15.293434 50.37054 50.37054 0 0 0 15.272954-35.640306V288.717094L646.727857 0.00041H137.90246z" fill="#FF5562" p-id="2483"></path><path d="M935.101501 288.717094h-237.445025c-27.822069-0.6656-50.22718-23.075831-50.928619-50.93374V0.00041l288.373644 288.716684z" fill="#FFBBC0" p-id="2484"></path><path d="M772.290686 715.069564l-106.239957-164.766655a16.593913 16.593913 0 0 0-14.412794-7.649276 18.851832 18.851832 0 0 0-14.407675 7.649276l-56.837097 88.299485-127.221709-206.131117a16.527353 16.527353 0 0 0-14.407674-7.644157 18.851832 18.851832 0 0 0-14.412795 7.649277L249.656655 715.264123a15.447034 15.447034 0 0 0 0 16.957434 15.667194 15.667194 0 0 0 14.407675 8.509436h493.547322a18.851832 18.851832 0 0 0 15.272954-8.509436 16.977913 16.977913 0 0 0-0.7936-16.957434l0.19968-0.199679zM628.070584 403.149048a42.490863 42.490863 0 0 0 26.14271 39.306225 42.388463 42.388463 0 0 0 46.264301-9.169917 42.531823 42.531823 0 0 0 9.226236-46.310381 42.429423 42.429423 0 0 0-39.203824-26.24511c-23.408631 0-42.393583 18.979832-42.434543 42.419183z" fill="#FFFFFF" p-id="2485"></path></svg>
